<svg xmlns="http://www.w3.org/2000/svg" viewBox="13010 3385 47.067 25">
  <defs>
    <style>
      .cls-1 {
        fill: #008f8d;
      }
    </style>
  </defs>
  <g id="XMLID_1_" transform="translate(12924 3360)">
    <path id="XMLID_12_" class="cls-1" d="M338.178,25.4a9.739,9.739,0,0,0-.763,1.259c-1.579,2.714-3.137,5.437-4.7,8.151-.392.681-.774,1.362-1.166,2.033-.041.072-.072.175-.165.175-.113,0-.134-.113-.186-.186q-1.9-3.3-3.807-6.614-1.347-2.352-2.714-4.695a.346.346,0,0,1,.01-.371l3.838-6.624q1.346-2.337,2.7-4.674c.134-.237.175-.237.32,0,.908,1.568,1.806,3.137,2.714,4.695,1.269,2.187,2.528,4.375,3.8,6.562a2.255,2.255,0,0,0,.144.186A.2.2,0,0,0,338.178,25.4Z" transform="translate(-205.131 12.736)"/>
    <path id="XMLID_11_" class="cls-1" d="M13.526,28.111c-.021.031-.041.1-.072.165-1.29,2.229-2.569,4.457-3.859,6.686-.867,1.517-1.744,3.023-2.61,4.54-.052.083-.072.2-.206.2s-.155-.113-.206-.2L1,29.845c-.31-.537-.619-1.073-.929-1.6a.311.311,0,0,1,.01-.351q2.832-4.875,5.654-9.75c.3-.516.588-1.032.887-1.548.144-.248.186-.248.33.01.784,1.362,1.579,2.724,2.363,4.086,1.383,2.383,2.755,4.767,4.137,7.15A.6.6,0,0,1,13.526,28.111Z" transform="translate(85.978 10.281)"/>
    <path id="XMLID_4_" class="cls-1" d="M176.413,11.669a.448.448,0,0,1-.093.217q-1.362,2.368-2.734,4.746c-1.238,2.156-2.487,4.313-3.725,6.469-.021.031-.041.072-.062.1-.124.206-.175.206-.3,0-.433-.733-.856-1.475-1.279-2.218C167.075,19,165.92,17,164.774,15c-.6-1.042-1.2-2.095-1.806-3.137a.357.357,0,0,1,.01-.413c.753-1.29,1.5-2.59,2.249-3.879q1.826-3.157,3.652-6.325c.206-.361.413-.733.629-1.094.124-.206.165-.206.279,0,.846,1.444,1.682,2.9,2.518,4.344,1.021,1.764,2.043,3.539,3.064,5.3.32.547.64,1.094.949,1.651A.369.369,0,0,1,176.413,11.669Z" transform="translate(-60.102 25)"/>
    <path id="XMLID_3_" class="cls-1" d="M93.035,138.73H86.741c-.547,0-.588-.062-.31-.537L92.87,127.05c.165-.289.2-.279.351,0l4.922,8.512c.516.9,1.032,1.785,1.548,2.683.217.371.155.475-.289.475Q96.213,138.735,93.035,138.73Z" transform="translate(8.636 -88.751)"/>
    <path id="XMLID_2_" class="cls-1" d="M248.909,138.965h-6.387c-.124,0-.268.041-.351-.113s.021-.237.083-.34l4.21-7.274,2.291-3.962c.041-.072.062-.175.165-.175s.114.093.155.165l3.5,6.067q1.5,2.616,3.023,5.221c.175.31.113.433-.248.433C253.2,138.965,251.055,138.965,248.909,138.965Z" transform="translate(-131.163 -88.986)"/>
  </g>
</svg>
