<svg xmlns="http://www.w3.org/2000/svg" viewBox="8702 1699 150 20.93"><defs><style>.a{fill:#0098BC;}</style></defs><g transform="translate(8536 1561)"><path class="a" d="M26.863,10.274a3.649,3.649,0,0,1-.7,1.047c-1.221,2.267-2.616,4.535-3.837,6.628a5.456,5.456,0,0,0-.872,1.744.174.174,0,0,1-.349,0c-1.047-1.744-2.093-3.663-3.14-5.407A44.116,44.116,0,0,0,15.7,10.449V10.1c1.047-1.744,2.093-3.663,3.14-5.407A44.116,44.116,0,0,1,21.107.856c.174-.174.174-.174.174,0,1.221,2.093,2.442,4.012,3.488,6.1.523,1.047,1.221,2.093,1.744,3.14.349,0,.349,0,.349.174Z" transform="translate(177.684 138.54)"/><path class="a" d="M10.988,10.449h0A58.8,58.8,0,0,1,7.674,16.03L5.581,19.693a.174.174,0,1,1-.349,0C3.663,17.077,2.267,14.46.7,11.844c-.174-.523-.523-.872-.7-1.4V10.1C1.57,7.484,3.14,4.693,4.709,2.077c.174-.349.523-.872.7-1.221.174-.174.174-.174.349,0C6.453,1.9,6.977,3.123,7.674,4.17c1.047,1.919,2.267,3.837,3.314,5.93Z" transform="translate(166 138.54)"/><path class="a" d="M18.814,9.593v.174c-.7,1.221-1.57,2.616-2.267,3.837-1.047,1.744-2.093,3.488-2.965,5.233h0a.174.174,0,0,1-.349,0c-1.4-2.442-2.965-5.058-4.36-7.5A7.07,7.07,0,0,1,8,9.767V9.419C9.047,7.674,9.919,6.1,10.965,4.36c.872-1.4,1.57-2.791,2.442-4.186a.174.174,0,0,1,.349,0c1.4,2.442,2.965,5.058,4.36,7.5.349.523.523,1.047.872,1.57A.54.54,0,0,0,18.814,9.593Z" transform="translate(171.953 138)"/><path class="a" d="M9.688,15.874H4.456c-.349,0-.523,0-.174-.349,1.744-3.14,3.488-6.1,5.233-9.07.174-.174.174-.174.349,0,1.744,2.965,3.488,5.93,5.233,9.07l.174.174c.174.174,0,.349-.174.349H12.479A15.96,15.96,0,0,0,9.688,15.874Z" transform="translate(169.044 142.707)"/><path class="a" d="M17.312,15.967H11.905c-.174,0-.349-.174-.174-.349.7-1.047,1.221-2.267,1.919-3.314,1.221-1.919,2.267-4.012,3.488-5.93a.174.174,0,0,1,.349,0L20.1,11.084c.872,1.57,1.744,2.965,2.616,4.535.174.349.174.349-.174.349Z" transform="translate(174.676 142.614)"/><path class="a" d="M42.716,20.16H29.984a2.212,2.212,0,0,1-1.047-.174,2.479,2.479,0,0,1-1.047-.349,3.649,3.649,0,0,1-1.047-.7,2.1,2.1,0,0,1-.872-.872c-.174-.349-.523-.872-.7-1.221a4.829,4.829,0,0,1-.174-1.57V5.684a2.212,2.212,0,0,1,.174-1.047,2.479,2.479,0,0,1,.349-1.047,3.649,3.649,0,0,1,.7-1.047c.349-.349.523-.7.872-.872s.872-.523,1.221-.7A4.829,4.829,0,0,1,29.984.8H42.716V4.288H29.984a1.474,1.474,0,0,0-1.047.349,1.474,1.474,0,0,0-.349,1.047v9.593a1.474,1.474,0,0,0,.349,1.047,1.474,1.474,0,0,0,1.047.349H42.716Z" transform="translate(184.679 138.595)"/><path class="a" d="M55.165,20.235H38.944a1.049,1.049,0,0,1-.7-.174c-.174-.174-.349-.174-.523-.349s-.349-.349-.349-.523a1.049,1.049,0,0,1-.174-.7V.7h3.488V16.747H55.165Z" transform="translate(193.684 138.521)"/><path class="a" d="M69.728,12.435a7.078,7.078,0,0,1-.7,3.314,9.776,9.776,0,0,1-1.744,2.616,9.776,9.776,0,0,1-2.616,1.744,7,7,0,0,1-3.314.523H56.472a10.155,10.155,0,0,1-3.314-.523,6.9,6.9,0,0,1-2.616-1.744A9.775,9.775,0,0,1,48.8,15.749a7.078,7.078,0,0,1-.7-3.314V8.772a7.078,7.078,0,0,1,.7-3.314,6.9,6.9,0,0,1,1.744-2.616A9.776,9.776,0,0,1,53.158,1.1,7.078,7.078,0,0,1,56.472.4h4.884a7.078,7.078,0,0,1,3.314.7,9.775,9.775,0,0,1,2.616,1.744A9.776,9.776,0,0,1,69.03,5.458a10.2,10.2,0,0,1,.7,3.314v3.663ZM66.24,8.772a6.271,6.271,0,0,0-.349-1.919,3.659,3.659,0,0,0-2.267-2.267A6.27,6.27,0,0,0,61.7,4.237H56.821a6.27,6.27,0,0,0-1.919.349,3.659,3.659,0,0,0-2.267,2.267,6.27,6.27,0,0,0-.349,1.919v3.663a6.27,6.27,0,0,0,.349,1.919A3.659,3.659,0,0,0,54.9,16.621a6.27,6.27,0,0,0,1.919.349H61.53a6.27,6.27,0,0,0,1.919-.349,3.659,3.659,0,0,0,2.267-2.267,6.271,6.271,0,0,0,.349-1.919l.174-3.663Z" transform="translate(201.795 138.298)"/><path class="a" d="M81.835,18.391a1.049,1.049,0,0,1-.174.7c-.174.174-.174.349-.349.523s-.349.349-.523.349-.523.174-.7.174H72.067A9.945,9.945,0,0,1,69.8,19.96a11.282,11.282,0,0,1-2.267-.7,13.009,13.009,0,0,1-2.093-1.221A9.142,9.142,0,0,1,63.7,16.123a6.115,6.115,0,0,1-1.047-2.442,8.661,8.661,0,0,1-.349-3.14V.774h3.488v9.767a10.557,10.557,0,0,0,.349,2.616A5.8,5.8,0,0,0,67.184,14.9a2.712,2.712,0,0,0,1.4,1.047,7.18,7.18,0,0,0,1.4.523c.349,0,.872.174,1.221.174h6.977V.6H81.66l.174,17.791Z" transform="translate(212.363 138.447)"/><path class="a" d="M94.186,4.188H86.337V20.235H82.849V4.188H75V.7H94.186Z" transform="translate(221.814 138.521)"/></g></svg>