<svg xmlns="http://www.w3.org/2000/svg" viewBox="9872 1697 25.001 25"><defs><style>.a{fill:#efefef;}.b{fill:#008f8d;}</style></defs><g transform="translate(9872.002 1697.003)"><path class="a" d="M13.739,23.848l-3.726,2.028A6.9,6.9,0,0,0,9.4,26.3a12.6,12.6,0,0,0,16.084.047,1.978,1.978,0,0,0-.66-.425l-4.009-1.981a1.52,1.52,0,0,1-.849-1.368V21.018c.094-.142.236-.283.377-.472a8.228,8.228,0,0,0,1.226-2.5,1.217,1.217,0,0,0,.9-1.179V15.217a1.187,1.187,0,0,0-.425-.943v-2.5S22.56,8,17.418,8,12.8,11.773,12.8,11.773v2.406a1.357,1.357,0,0,0-.425.943v1.651a1.231,1.231,0,0,0,.566,1.038,8.085,8.085,0,0,0,1.509,3.113v1.509A1.4,1.4,0,0,1,13.739,23.848Z" transform="translate(-4.967 -4.228)"/><g transform="translate(-0.002 -0.003)"><path class="b" d="M12.734,0a12.486,12.486,0,0,0-8.3,22.027,6.9,6.9,0,0,1,.613-.425l3.726-2.028a1.612,1.612,0,0,0,.8-1.321V16.743A8.561,8.561,0,0,1,8.065,13.63,1.3,1.3,0,0,1,7.5,12.592V10.942A1.187,1.187,0,0,1,7.923,10V7.545S7.4,3.772,12.546,3.772s4.622,3.773,4.622,3.773V9.951a1.357,1.357,0,0,1,.425.943v1.651a1.217,1.217,0,0,1-.9,1.179,9.481,9.481,0,0,1-1.226,2.5,5.417,5.417,0,0,1-.377.472v1.557a1.574,1.574,0,0,0,.849,1.368L19.951,21.6c.236.142.472.283.66.425A12.332,12.332,0,0,0,25,12.734,12.524,12.524,0,0,0,12.734,0Z" transform="translate(0.002 0.003)"/></g></g></svg>