<?xml version="1.0" encoding="utf-8"?>
<!-- Generator: Adobe Illustrator 18.0.0, SVG Export Plug-In . SVG Version: 6.00 Build 0)  -->
<!DOCTYPE svg PUBLIC "-//W3C//DTD SVG 1.1//EN" "http://www.w3.org/Graphics/SVG/1.1/DTD/svg11.dtd">
<svg version="1.1" id="Layer_1" xmlns="http://www.w3.org/2000/svg" xmlns:xlink="http://www.w3.org/1999/xlink" x="0px" y="0px"
	 width="597px" height="792px" viewBox="-291.001 236.271 597 792" enable-background="new -291.001 236.271 597 792"
	 xml:space="preserve">
<path id="path109_1_" d="M304.583,557.757c11.748-84.282-50.952-127.446-137.214-158.796l27.456-113.718l-68.64-15.708
	L98.73,379.293c-18.523-3.649-36.851-8.231-54.912-13.728l27.456-111.738l-68.64-17.556l-27.456,113.718
	c-15.708-3.894-29.436-5.874-43.098-9.834l0,0l-94.116-23.496l-17.622,74.514c0,0,50.952,11.748,49.038,11.748
	c27.456,7.854,33,25.476,31.35,39.204l-31.35,129.36c1.98,0,3.894,1.98,7.854,1.98c-1.98,0-3.894-1.98-7.854-1.98l-45.078,180.378
	c-4.056,12.863-17.771,20.002-30.633,15.946c-0.24-0.076-0.479-0.155-0.717-0.238c-17.186-2.983-34.195-6.905-50.952-11.748
	l-33,78.408l90.156,21.582c15.708,3.894,33,7.854,49.038,11.748l-29.436,113.718l68.64,17.622l27.456-113.718
	c19.8,5.874,37.224,9.834,54.912,13.728l-27.456,111.738l68.64,17.622l29.436-113.718c117.612,21.582,205.854,13.728,243.078-92.4
	c30.126-59.555,6.27-132.256-53.285-162.383c-3.076-1.556-6.217-2.98-9.415-4.267c47.899-8.344,83.206-49.402,84.282-98.01
	L304.583,557.757z M147.768,779.253c-21.582,86.262-165,39.204-211.728,27.456l37.224-150.942
	c47.058,11.814,196.02,33.33,174.438,123.552L147.768,779.253z M169.35,557.757c-19.8,78.408-139.194,39.204-178.2,29.436
	l33-137.214c39.27,7.788,164.736,25.476,145.134,107.778L169.35,557.757z"/>
</svg>
