<?xml version="1.0" encoding="utf-8"?>
<!-- Generator: Adobe Illustrator 18.0.0, SVG Export Plug-In . SVG Version: 6.00 Build 0)  -->
<!DOCTYPE svg PUBLIC "-//W3C//DTD SVG 1.1//EN" "http://www.w3.org/Graphics/SVG/1.1/DTD/svg11.dtd">
<svg version="1.1" id="Layer_1" xmlns="http://www.w3.org/2000/svg" xmlns:xlink="http://www.w3.org/1999/xlink" x="0px" y="0px"
	 width="589.807px" height="510.987px" viewBox="22.194 140.506 589.807 510.987"
	 enable-background="new 22.194 140.506 589.807 510.987" xml:space="preserve">
<path id="Path_197" d="M461.717,140.506c-66.651,0-113.565,50.099-144.409,91.496c-30.585-41.397-77.352-91.496-144.15-91.496
	C89.864,140.424,22.276,207.88,22.194,291.173c0,0.099,0,0.198,0,0.296c0.028,19.484,3.891,38.772,11.368,56.764
	c14.811,37.398,108.196,128.265,190.361,209.061c38.731,37.398,71.464,70.131,88.164,88.867l4.666,5.332l4.666-5.332
	c16.7-18.699,50.099-51.432,88.164-88.867c82.165-80.166,175.661-171.662,191.028-208.394
	c31.719-77.106-5.074-165.325-82.18-197.044C500.434,144.453,481.176,140.599,461.717,140.506z M589.279,343.568
	c-14.034,34.066-114.232,132.264-187.695,203.654c-35.399,34.066-66.132,64.133-84.165,84.165
	c-18.033-19.366-48.766-49.432-84.165-84.165C159.79,475.832,59.592,377.486,45.558,343.568
	c-28.508-70.729,5.719-151.177,76.449-179.684c16.26-6.554,33.619-9.951,51.15-10.01c64.799,0,110.196,53.432,138.929,93.496
	l5.332,7.406l5.332-7.406c28.734-40.212,74.167-93.496,138.966-93.496c76.258,0.279,137.851,62.324,137.572,138.582
	C599.225,309.973,595.828,327.32,589.279,343.568z"/>
</svg>
