<?xml version="1.0" encoding="utf-8"?>
<!-- Generator: Adobe Illustrator 18.0.0, SVG Export Plug-In . SVG Version: 6.00 Build 0)  -->
<!DOCTYPE svg PUBLIC "-//W3C//DTD SVG 1.1//EN" "http://www.w3.org/Graphics/SVG/1.1/DTD/svg11.dtd">
<svg version="1.1" id="Layer_1" xmlns="http://www.w3.org/2000/svg" xmlns:xlink="http://www.w3.org/1999/xlink" x="0px" y="0px"
	 width="612.344px" height="536.08px" viewBox="-0.345 127.96 612.344 536.08"
	 enable-background="new -0.345 127.96 612.344 536.08" xml:space="preserve">
<g id="Group_8" transform="translate(12540.057 3757.9)">
	<path d="M-11963.523-3459.753c-8.156-8.905-12.224-20.811-11.22-32.844c1.059-20.712-0.19-41.478-3.723-61.914
		c-3.356-25.99-10.343-51.381-20.758-75.429c-26.029,3.768-51.298,11.635-74.867,23.307c-24.48,14.127-48.094,29.376-72.268,43.758
		c-2.93,1.792-6.39,2.513-9.792,2.04c-51.373-8.727-103.843-8.813-155.244-0.255c-4.337,0.507-8.715-0.502-12.393-2.856
		c-12.648-7.752-25.041-16.422-37.74-24.174c-32.56-21.331-69.239-35.58-107.661-41.82c-1.173,2.601-2.04,4.335-2.855,6.069
		c-11.868,32.215-19.063,65.962-21.369,100.215c-1.297,12.547-1.297,25.193,0,37.74c1.27,5.707-0.224,11.678-4.029,16.116
		c-14.114,17.26-24.936,36.968-31.926,58.14c-11.965,40.661-14.235,83.56-6.63,125.256c3.672,34.521,14.771,67.839,32.538,97.665
		c35.466,54.674,95.276,88.715,160.395,91.29c55.59,4.59,111.741,3.468,167.586,3.468c39.947,1.064,79.737-5.389,117.301-19.023
		c57.188-20.998,100.522-68.596,116.075-127.5c10.497-35.983,15.163-73.415,13.821-110.874
		C-11928.746-3390.244-11941.039-3428.047-11963.523-3459.753z M-12017.124-3222.45c-9.793,30.731-34.128,54.646-65.025,63.903
		c-34.768,11.516-71.091,17.656-107.712,18.207c-14.994,0.561-30.243,0-45.492,0c-46.7,2.049-93.449-2.727-138.771-14.178
		c-50.43-10.1-86.001-55.408-83.844-106.794c-5.799-35.827,6.363-72.217,32.537-97.359c15.947-14.165,36.556-21.955,57.886-21.879
		c32.231-0.867,64.209,2.04,96.491,2.04c35.395,0.255,70.84-0.918,106.539-1.53c20.4-0.306,40.801-1.734,61.2-2.04
		c48.249,2.842,87.537,39.831,93.279,87.822C-12006.434-3270.104-12008.869-3245.433-12017.124-3222.45z M-12337.914-3324.399
		c25.435,0,46.053,25.779,46.053,57.579s-20.618,57.579-46.053,57.579s-46.053-25.779-46.053-57.579
		S-12363.349-3324.399-12337.914-3324.399z"/>
	<path d="M-12119.022-3324.399c25.435,0,46.054,25.779,46.054,57.579s-20.619,57.579-46.054,57.579s-46.053-25.779-46.053-57.579
		S-12144.457-3324.399-12119.022-3324.399z"/>
</g>
</svg>
