<?xml version="1.0" encoding="utf-8"?>
<!-- Generator: Adobe Illustrator 18.0.0, SVG Export Plug-In . SVG Version: 6.00 Build 0)  -->
<!DOCTYPE svg PUBLIC "-//W3C//DTD SVG 1.1//EN" "http://www.w3.org/Graphics/SVG/1.1/DTD/svg11.dtd">
<svg version="1.1" id="Layer_1" xmlns="http://www.w3.org/2000/svg" xmlns:xlink="http://www.w3.org/1999/xlink" x="0px" y="0px"
	 width="598.337px" height="558.453px" viewBox="-299.168 -162.453 598.337 558.453"
	 enable-background="new -299.168 -162.453 598.337 558.453" xml:space="preserve">
<path id="Path_123" d="M-179.62,395.949h-118.779V14.367h118.779V395.949z M-240.82-32.451L-240.82-32.451
	c-35.799-3.774-61.759-35.854-57.984-71.653s35.854-61.759,71.653-57.985c33.167,3.497,58.343,31.466,58.344,64.816
	c-0.68,36.61-30.91,65.737-67.52,65.057C-237.827-32.243-239.325-32.321-240.82-32.451z M299.168,395.949H162.386V197.967
	c0-50.388-21.624-86.394-68.391-86.394c-29.105,1.006-54.717,19.504-64.821,46.818c-3.42,10.431-4.653,21.456-3.621,32.385V396
	h-133.212V14.367H25.553v61.2C48.638,32.168,95.343,6.68,144.332,10.746c86.394,0,151.215,54.009,151.215,172.788v212.415H299.168z"
	/>
</svg>
