<?xml version="1.0" encoding="utf-8"?>
<!-- Generator: Adobe Illustrator 18.0.0, SVG Export Plug-In . SVG Version: 6.00 Build 0)  -->
<!DOCTYPE svg PUBLIC "-//W3C//DTD SVG 1.1//EN" "http://www.w3.org/Graphics/SVG/1.1/DTD/svg11.dtd">
<svg version="1.1" id="Layer_1" xmlns="http://www.w3.org/2000/svg" xmlns:xlink="http://www.w3.org/1999/xlink" x="0px" y="0px"
	 width="608.008px" height="594.732px" viewBox="994.825 148.565 608.008 594.732"
	 enable-background="new 994.825 148.565 608.008 594.732" xml:space="preserve">
<path id="Path_198" d="M1454.743,148.565h-311.828c-81.766-0.022-148.068,66.244-148.09,148.01c0,0.027,0,0.053,0,0.08v179.225
	c0.206,75.694,57.273,139.139,132.523,147.332l1.557,104.461c0.266,5.844,3.504,11.145,8.582,14.051
	c2.244,0.888,4.616,1.414,7.025,1.557c3.393,0.164,6.725-0.947,9.34-3.113l150.445-116.157h150.445
	c81.766,0.022,148.068-66.244,148.09-148.01c0-0.027,0-0.053,0-0.08V296.656c0.022-81.766-66.245-148.068-148.01-148.09
	C1454.797,148.565,1454.77,148.565,1454.743,148.565z M1571.659,475.881c0.088,64.482-52.114,116.827-116.596,116.915
	c-0.107,0-0.213,0-0.32,0h-155.914c-3.393-0.164-6.724,0.946-9.34,3.113l-129.409,99.791l-1.597-87.218
	c-0.022-8.611-6.997-15.585-15.607-15.607c-64.482,0.066-116.81-52.153-116.876-116.636c0-0.12,0-0.24,0-0.36V296.656
	c-0.088-64.482,52.114-116.827,116.596-116.915c0.106,0,0.213,0,0.32,0h311.788c64.482-0.11,116.845,52.074,116.955,116.556
	c0,0.12,0,0.24,0,0.36V475.881z"/>
</svg>
