<?xml version="1.0" encoding="utf-8"?>
<!-- Generator: Adobe Illustrator 18.0.0, SVG Export Plug-In . SVG Version: 6.00 Build 0)  -->
<!DOCTYPE svg PUBLIC "-//W3C//DTD SVG 1.1//EN" "http://www.w3.org/Graphics/SVG/1.1/DTD/svg11.dtd">
<svg version="1.1" id="Layer_1" xmlns="http://www.w3.org/2000/svg" xmlns:xlink="http://www.w3.org/1999/xlink" x="0px" y="0px"
	 width="610.97px" height="614.509px" viewBox="1.03 88.745 610.97 614.509" enable-background="new 1.03 88.745 610.97 614.509"
	 xml:space="preserve">
<path id="Path_134" d="M609.465,412.153c-8.951-27.808-38.659-43.187-66.533-34.444l-56.297,19.55l-40.943-111.98l55.99-19.397
	c28.39-9.558,43.781-40.202,34.495-68.682c-8.951-27.808-38.659-43.187-66.533-34.444l-56.195,19.09l-19.397-55.888
	c-9.578-28.476-40.359-43.867-68.887-34.444c-27.808,8.951-43.187,38.659-34.444,66.533l19.397,55.99L193.839,257.08l-19.397-55.785
	c-8.106-26.635-36.269-41.657-62.904-33.551c-1.225,0.373-2.435,0.792-3.629,1.257c-27.808,8.951-43.187,38.659-34.444,66.533
	l19.09,54.045l-55.888,19.397C8.966,318.641-5.655,348.933,4.01,376.635c9.302,26.659,37.833,41.384,64.951,33.522l58.139-17.247
	l38.743,114.129l-53.84,17.247c-28.476,9.578-43.867,40.359-34.444,68.887c8.951,27.808,38.659,43.187,66.533,34.444l53.84-19.397
	l19.397,58.139c8.951,27.808,38.659,43.187,66.533,34.444c28.127-9.976,43.339-40.4,34.444-68.887l-18.987-58.14l116.279-38.794
	l19.397,58.139c8.951,27.808,38.659,43.187,66.533,34.444c28.127-9.976,43.339-40.4,34.444-68.887l-17.247-58.139l55.99-19.397
	C603.016,471.29,618.394,440.759,609.465,412.153z M267.025,472.595l-38.743-114.129l116.279-38.743l38.743,114.129L267.025,472.595
	z"/>
</svg>
