<?xml version="1.0" encoding="utf-8"?>
<!-- Generator: Adobe Illustrator 18.0.0, SVG Export Plug-In . SVG Version: 6.00 Build 0)  -->
<!DOCTYPE svg PUBLIC "-//W3C//DTD SVG 1.1//EN" "http://www.w3.org/Graphics/SVG/1.1/DTD/svg11.dtd">
<svg version="1.1" id="Layer_1" xmlns="http://www.w3.org/2000/svg" xmlns:xlink="http://www.w3.org/1999/xlink" x="0px" y="0px"
	 width="611.681px" height="515.566px" viewBox="-158.389 138.217 611.681 515.566"
	 enable-background="new -158.389 138.217 611.681 515.566" xml:space="preserve">
<path id="Path_128" d="M414.303,140.163l-559.776,218.229c-10.48,4.136-15.622,15.985-11.486,26.465
	c2.268,5.745,7.016,10.154,12.914,11.989L-1.653,438.87l53.04,168.606c3.865,12.809,17.382,20.059,30.191,16.193
	c4.048-1.221,7.706-3.481,10.609-6.554l73.44-74.97l144.228,105.876c13.522,9.805,32.432,6.793,42.237-6.729
	c2.475-3.413,4.209-7.305,5.091-11.427l95.472-457.062c3.3-15.453-6.552-30.655-22.005-33.955
	C425.189,137.682,419.506,138.139,414.303,140.163z M344.127,241.5l-260.1,230.112c-2.538,2.359-4.163,5.537-4.59,8.976
	l-10.2,89.097c-0.35,1.451-1.81,2.344-3.261,1.994c-0.819-0.197-1.498-0.765-1.839-1.535l-41.31-132.957
	c-1.876-6.088,0.572-12.677,5.967-16.065l306.969-190.434c3.201-1.999,7.417-1.025,9.416,2.177c1.738,2.782,1.253,6.407-1.154,8.635
	H344.127z"/>
</svg>
