<?xml version="1.0" encoding="utf-8"?>
<!-- Generator: Adobe Illustrator 18.0.0, SVG Export Plug-In . SVG Version: 6.00 Build 0)  -->
<!DOCTYPE svg PUBLIC "-//W3C//DTD SVG 1.1//EN" "http://www.w3.org/Graphics/SVG/1.1/DTD/svg11.dtd">
<svg version="1.1" id="Layer_1" xmlns="http://www.w3.org/2000/svg" xmlns:xlink="http://www.w3.org/1999/xlink" x="0px" y="0px"
	 width="590.042px" height="560.773px" viewBox="-284.041 115.614 590.042 560.773"
	 enable-background="new -284.041 115.614 590.042 560.773" xml:space="preserve">
<path id="Path_183" d="M-102.541,378.033c-11.381,85.705-8.408,172.708,8.798,257.436c95.757,9.085,192.084,10.556,288.073,4.399
	h4.555c5.232-0.41,10.433-1.151,15.572-2.219c15.572-5.489,24.214-21.995,23.085-59.405c0.038-1.726,0.854-3.342,2.219-4.399
	c24.653-15.705,33.639-47.382,20.905-73.692c-0.969-2.507,0.278-5.324,2.785-6.293c0.516-0.199,1.061-0.309,1.614-0.325
	c20.71-4.36,32.739-56.096,15.221-71.473c-2.15-2.013-2.261-5.388-0.247-7.538c0.08-0.085,0.162-0.168,0.247-0.247
	c9.096-11.611,14.117-25.893,14.287-40.642c3.28-22.009-11.902-42.51-33.911-45.791c-1.521-0.227-3.053-0.366-4.589-0.418
	c-14.287-2.219-29.703-3.309-46.208-4.399c-28.985-0.843-57.994-0.051-86.889,2.375c-7.786,1.09-13.197,1.09-19.815,2.219
	c-3.309,0-5.489,1.09-7.786,1.09c-2.313,0.04-4.445-1.245-5.489-3.309c0-1.09-1.09-2.219-1.09-3.309
	c-0.488-25.821,3.611-51.523,12.107-75.911c10.616-48.727-15.38-98.023-61.585-116.786c-9.627-5.172-21.449-3.855-29.703,3.309
	c-1.787,1.547-3.278,3.407-4.399,5.489v8.798c0.55,9.893,0.55,19.809,0,29.703c0.216,6.986-0.149,13.979-1.09,20.905
	c-2.733,35.741-13.656,70.373-31.922,101.215c-9.103,15.998-20.195,30.779-33.012,43.99c-8.716,9.648-18.293,18.483-28.613,26.394
	c-3.309,3.309-6.618,5.489-8.798,7.786c-1.09,0-2.219,1.09-4.399,1.09L-102.541,378.033z M-99.232,362.461l3.309-3.309
	c9.678-7.855,18.858-16.306,27.484-25.304c12.758-12.185,23.529-26.292,31.922-41.81c17.453-29.449,27.946-62.498,30.676-96.621
	c0-5.489,1.09-12.107,1.09-19.815v-38.501c-0.178-1.213,0.226-2.439,1.09-3.309c2.226-3.24,4.841-6.195,7.786-8.798
	c11.135-10.069,27.316-12.25,40.72-5.489c50.743,21.439,78.964,76.032,67.113,129.828c-4.835,17.715-8.515,35.725-11.017,53.916
	c-0.788,4.746-1.139,9.554-1.051,14.365h2.18c6.335-2.349,13.06-3.472,19.815-3.309c29.639-2.375,59.387-3.116,89.108-2.219
	c17.596,1.09,33.012,2.219,47.299,4.399c28.005,1.709,49.323,25.796,47.614,53.802c-0.068,1.118-0.173,2.234-0.315,3.346
	c-0.01,15.814-5.01,31.222-14.287,44.029c15.725,28.951,7.76,65.06-18.686,84.709c11.476,28.807,1.411,61.72-24.214,79.181
	c1.09,38.501-9.888,59.405-30.793,66.179c-5.697,1.892-11.636,2.954-17.635,3.153h-3.387c-95.288,5.957-190.886,4.851-286.01-3.309
	c0.113,0.838,0.495,1.617,1.09,2.219c1.111,2.281,0.164,5.03-2.117,6.142c-0.33,0.161-0.678,0.281-1.036,0.359
	c-57.264,23.357-74.86,24.292-169.457,13.275c-2.356-0.168-4.231-2.043-4.399-4.399c-26.394-85.643-23.085-183.705-1.09-315.713
	c0.077-2.686,2.318-4.801,5.004-4.724c0.552,0.016,1.098,0.126,1.614,0.325c50.49,14.005,103.454,16.664,155.092,7.786
	c3.031-0.065,5.54,2.339,5.605,5.37c0.009,0.419-0.03,0.838-0.116,1.248c-0.026,1.012-0.039,2.076-0.039,3.192L-99.232,362.461z
	 M-256.543,356.973c-20.905,125.39-24.214,218.897,1.09,302.516c85.799,11.173,104.524,8.993,155.131-10.978
	c-21.577-93.086-24.934-189.468-9.888-283.83c-48.763,7.821-98.628,5.261-146.333-7.513L-256.543,356.973z"/>
</svg>
