<?xml version="1.0" encoding="utf-8"?>
<!-- Generator: Adobe Illustrator 18.0.0, SVG Export Plug-In . SVG Version: 6.00 Build 0)  -->
<!DOCTYPE svg PUBLIC "-//W3C//DTD SVG 1.1//EN" "http://www.w3.org/Graphics/SVG/1.1/DTD/svg11.dtd">
<svg version="1.1" id="Layer_1" xmlns="http://www.w3.org/2000/svg" xmlns:xlink="http://www.w3.org/1999/xlink" x="0px" y="0px"
	 width="609.588px" height="432.256px" viewBox="-141.602 611.486 609.588 432.256"
	 enable-background="new -141.602 611.486 609.588 432.256" xml:space="preserve">
<path id="Path_119" d="M276.804,825.814L74.82,945.646V709.583L276.804,825.814z M467.956,938.391V716.838
	c1.342-56.816-43.31-103.971-99.733-105.322c-1.62-0.039-3.241-0.039-4.861,0h-400.34c-56.424-1.352-103.252,43.612-104.594,100.428
	c-0.039,1.631-0.039,3.263,0,4.895v221.553c-1.342,56.816,43.31,103.971,99.733,105.322c1.62,0.039,3.241,0.039,4.861,0h400.34
	c57.54,0.228,104.368-46.557,104.594-104.498C467.957,938.941,467.957,938.666,467.956,938.391"/>
</svg>
